<svg version="1.1" xmlns="http://www.w3.org/2000/svg" xmlns:xlink="http://www.w3.org/1999/xlink" width="91.93577" height="33" viewBox="0,0,91.93577,33"><defs><linearGradient x1="194.03211" y1="178.375" x2="285.96789" y2="178.375" gradientUnits="userSpaceOnUse" id="color-1"><stop offset="0" stop-color="#00f3ff"/><stop offset="1" stop-color="#33ff00"/></linearGradient></defs><g transform="translate(-194.03212,-160.75)"><g data-paper-data="{&quot;isPaintingLayer&quot;:true}" fill-rule="nonzero" stroke="none" stroke-linecap="butt" stroke-linejoin="miter" stroke-miterlimit="10" stroke-dasharray="" stroke-dashoffset="0" style="mix-blend-mode: normal"><text transform="translate(205,188.5) scale(0.5,0.5)" font-size="40" xml:space="preserve" fill="#9c9c9c" fill-rule="nonzero" stroke="none" stroke-width="1" stroke-linecap="butt" stroke-linejoin="miter" stroke-miterlimit="10" stroke-dasharray="" stroke-dashoffset="0" font-family="Pixel" font-weight="normal" text-anchor="start" style="mix-blend-mode: normal"><tspan x="0" dy="0">by Luk!</tspan></text><text transform="translate(202.5,186) scale(0.5,0.5)" font-size="40" xml:space="preserve" fill="#ffffff" fill-rule="nonzero" stroke="none" stroke-width="1" stroke-linecap="butt" stroke-linejoin="miter" stroke-miterlimit="10" stroke-dasharray="" stroke-dashoffset="0" font-family="Pixel" font-weight="normal" text-anchor="start" style="mix-blend-mode: normal"><tspan x="0" dy="0">by Luk!</tspan></text><path d="M285.47779,175.18279c1.07977,1.0412 0.03856,2.12097 0.03856,2.12097l-0.50278,0.5214c-2.19893,2.28037 -4.15699,4.41073 -6.4703,6.29276l0.20479,0.20448l-1.74483,1.74753c-0.27152,0.27197 -0.64688,0.44023 -1.06155,0.44023c-0.82843,0 -1.5,-0.67157 -1.5,-1.5c0,-0.02323 0.00053,-0.04634 0.00157,-0.06931l0.11953,-2.98825l0.00089,0.00004l-0.00072,-0.00412c0.12744,-2.79495 0.18239,-5.59349 0.12428,-8.39191c-0.01307,-0.62919 -0.13228,-1.25698 -0.09858,-1.8854c0.0203,-0.37849 0.60954,-0.96285 0.25907,-1.10719c-0.34598,-0.14249 -0.27568,0.69572 -0.41351,1.04358c-4.82502,3.45556 -9.17114,7.33854 -13.68657,11.18176c-0.84606,0.72011 -4.8635,4.16731 -5.66571,4.21953c-1.99066,0.12958 -2.55205,-2.83545 -2.76782,-4.02142c-0.67431,-3.70629 -0.8678,-7.61123 -0.73498,-11.36992c0.01141,-0.323 -0.40991,0.49992 -0.62172,0.74405c-0.32309,0.37238 -0.63736,0.75248 -0.96603,1.11994c-0.66942,0.74844 -1.35376,1.48339 -2.02799,2.22749c-1.91282,2.11103 -3.82303,4.21261 -5.80573,6.25842c-1.68188,1.73483 -3.54699,4.21022 -5.65194,5.46069c-0.87792,0.52153 -1.83187,1.60102 -2.79347,1.25743c-0.99569,-0.35578 -1.20529,-1.77859 -1.50381,-2.79292c-0.7555,-2.56708 0.0518,-6.14694 0.10337,-8.78095c0.015,-0.76626 0.01444,-1.53295 0.00061,-2.29923c-0.00914,-0.50637 -0.10977,-1.01291 -0.06952,-1.51776c0.02053,-0.25752 0.39626,-0.94619 0.24904,-0.73391c-4.82019,6.95032 -13.27457,14.1342 -21.41396,16.55671c-0.61537,-5.60113 1.16189,-12.10728 3.01214,-17.44388c0.10239,-0.29531 -0.27179,0.58199 -0.50504,0.79005c-0.48641,0.4339 -1.05841,0.76401 -1.55099,1.1909c-1.39046,1.20504 -2.61293,2.59146 -3.89985,3.9065c-3.54955,3.62709 -7.36608,6.5219 -11.90183,8.79311c0,0 -1.34164,0.67082 -2.01246,-0.67082c-0.67082,-1.34164 0.67082,-2.01246 0.67082,-2.01246c5.19273,-2.59233 8.9108,-6.15126 12.98412,-10.21798c0.8964,-0.89495 4.51164,-4.77887 6.08968,-4.68724c1.07618,0.06249 2.37677,0.60245 2.81849,1.58578c0.53653,1.19441 -0.15456,2.61771 -0.34859,3.91264c-0.51653,3.44714 -1.63064,6.92775 -2.40983,10.32932c-0.05229,0.22826 -0.1166,0.47156 -0.19971,0.70978c1.09879,-1.13325 2.51069,-1.92214 3.84308,-2.93012c3.41942,-2.58685 6.66334,-5.1687 9.7176,-8.1808c0.93191,-0.91905 4.42209,-4.67757 5.60014,-4.59058c1.19331,0.08812 1.64905,1.78952 2.14452,2.87868c0.23806,0.52331 0.18934,4.24693 0.18109,4.683c-0.04154,2.19596 0.16497,4.80542 -0.01769,7.09173c0.79964,-0.81438 1.82809,-1.43824 2.64518,-2.24496c0.70375,-0.69482 1.37641,-1.42043 2.06462,-2.13065c2.96105,-3.05468 5.61755,-7.06042 8.91229,-9.71603c1.44052,-1.16108 3.42993,-2.88654 5.12828,-0.25595c1.23758,1.91688 0.6127,7.36251 0.85301,9.67913c0.09921,0.95638 0.22458,1.9102 0.36807,2.86094c0.07804,0.51708 -0.29478,1.9815 0.02612,1.56859c4.46879,-5.74998 11.49698,-10.62273 17.39772,-14.84871c1.02883,-0.48547 2.0301,-1.87858 3.08649,-1.45642c1.18294,0.47273 1.35786,2.18374 1.75907,3.39281c0.901,2.71524 0.33602,6.75215 0.09706,9.84826c1.40017,-1.9569 3.81362,-3.74839 5.22245,-5.2094l0.50278,-0.5214c0,0 1.0412,-1.07977 2.12097,-0.03856z" fill="url(#color-1)" stroke-width="0.5"/></g></g></svg>