<svg version="1.1" xmlns="http://www.w3.org/2000/svg" xmlns:xlink="http://www.w3.org/1999/xlink" width="104.03224" height="33.51427" viewBox="0,0,104.03224,33.51427"><g transform="translate(-188.042,-158.64821)"><g data-paper-data="{&quot;isPaintingLayer&quot;:true}" fill-rule="nonzero" stroke="none" stroke-linecap="butt" stroke-linejoin="miter" stroke-miterlimit="10" stroke-dasharray="" stroke-dashoffset="0" style="mix-blend-mode: normal"><text transform="translate(191.25,185.76875) scale(0.5,0.5)" font-size="40" xml:space="preserve" fill="#ffffff" fill-rule="nonzero" stroke="none" stroke-width="1" stroke-linecap="butt" stroke-linejoin="miter" stroke-miterlimit="10" stroke-dasharray="" stroke-dashoffset="0" font-family="Pixel" font-weight="normal" text-anchor="start" style="mix-blend-mode: normal"><tspan x="0" dy="0">by Lukiiy!</tspan></text><path d="M289.25962,182.4387c-1.19358,-0.31125 -0.82554,-1.39328 -0.82554,-1.39328l0.37421,-1.09141c0.16847,-0.92552 0.318,-1.85687 0.36935,-2.79165c0.212,-3.73378 0.83026,-8.27804 -0.05567,-11.91289c-0.05425,-0.22257 -0.08385,0.4759 -0.24808,0.65317c-0.36707,0.39619 -0.8644,0.67734 -1.29752,1.01505c-1.86477,1.45397 -3.5108,3.00358 -5.21634,4.60755c-4.59451,4.32087 -7.73344,9.73579 -11.87266,14.31928l0.18429,0.094l-1.25256,1.95118c-0.19717,0.31648 -0.5572,0.54522 -0.98536,0.58404c-0.68754,0.06234 -1.29037,-0.38867 -1.34646,-1.00737c-0.00825,-0.09097 -0.00422,-0.18051 0.01085,-0.26726l0.23252,-1.54621l0.01083,0.00114l-0.00618,-0.02936c0.89007,-4.29114 2.11483,-8.57133 2.57163,-12.91394c0.30387,-2.87015 0.54247,-5.72758 0.74042,-8.603c0.04725,-0.68642 0.09947,-1.37264 0.15117,-2.05887c0.03112,-0.4131 0.54604,-1.16073 0.09727,-1.23913c-0.50116,-0.08754 -0.59559,0.77181 -0.97854,1.08519c-1.73042,1.41609 -3.5916,2.31019 -5.14238,3.91862c-2.70986,2.81063 -5.44582,5.66111 -7.73667,8.76848c-1.95701,2.65454 -3.38404,5.21189 -5.44721,7.57487l0.23264,0.12136l-1.09416,1.66818c-0.19849,0.31127 -0.55542,0.53558 -0.97902,0.57399c-0.68754,0.06234 -1.29037,-0.38867 -1.34646,-1.00737c-0.00755,-0.08322 -0.00481,-0.16524 0.00724,-0.24503l0.14443,-1.11968l0.02045,0.0018l-0.01358,-0.04703c1.39015,-6.30476 2.3599,-12.81951 2.98372,-19.21013c-0.97151,0.83208 -3.18849,2.72896 -3.21227,2.74995c-2.16514,1.91195 -4.35403,3.88079 -6.38411,5.90856c-3.85247,3.8481 -7.53508,8.01774 -10.9629,12.1762c-1.63586,1.98455 -3.44417,5.64112 -5.74218,7.06075c-0.05302,0.03275 -0.10679,0.06419 -0.16124,0.09443l0.01233,0.01601l-1.6435,1.04273c-0.17721,0.11683 -0.38973,0.19399 -0.62235,0.21508c-0.68754,0.06234 -1.29037,-0.38867 -1.34646,-1.00737c-0.01706,-0.18816 0.01841,-0.37014 0.09537,-0.53408l0.60238,-1.3608c2.43845,-6.99998 5.5304,-13.7556 7.63109,-20.85392c0.43017,-1.45317 0.81667,-2.91674 1.29057,-4.35952c0.18412,-0.56053 1.21491,-2.05144 0.79057,-1.60607c-3.36117,3.52764 -7.61731,6.26699 -10.76673,10.03563c-4.16785,4.98731 -7.08673,10.42684 -12.09622,14.57935l0.21893,0.17149l-1.65747,1.71041c-0.20617,0.2135 -0.49913,0.35978 -0.83368,0.39012c-0.68754,0.06234 -1.29037,-0.38867 -1.34646,-1.00737c-0.01415,-0.15605 0.00784,-0.30787 0.05966,-0.44866l0.36559,-1.07484c0.53899,-3.5699 1.18503,-7.10288 1.60714,-10.68616c0.27501,-2.51438 -0.31586,-7.3149 1.17174,-9.57914c-0.25984,0.35027 -0.73391,0.9686 -0.99409,1.216c-0.38799,0.36894 -0.71909,0.7831 -1.07962,1.17392c-1.07281,1.16292 -2.14367,2.32731 -3.20889,3.49584c-4.31519,4.73361 -7.83129,9.92089 -13.25942,13.72875c0,0 -0.99574,0.69665 -1.74978,-0.18785c-0.75404,-0.88451 0.24169,-1.58116 0.24169,-1.58116c6.4722,-4.51521 10.86152,-11.25462 16.06981,-16.87762c0.82302,-0.88855 4.14566,-4.8201 5.8879,-2.72174c0.68173,0.82108 0.06395,2.06825 0.05797,3.10323c-0.01629,2.81791 -0.34543,5.61154 -0.65228,8.41691c-0.30895,2.62288 -0.7316,5.21962 -1.15422,7.82213c1.03503,-1.22587 2.38592,-2.35719 3.3387,-3.53576c4.32544,-5.35043 7.92444,-11.0262 13.2074,-15.71536c1.34894,-1.19732 4.81055,-4.6976 6.82089,-4.67264c0.88917,0.01104 1.72621,0.82313 1.96868,1.59042c0.49665,1.57164 -1.40742,5.54622 -1.88557,7.16145c-1.6781,5.66744 -3.97543,11.12086 -6.08332,16.64912c1.05474,-1.22246 2.1773,-2.3684 2.85002,-3.18451c5.02599,-6.09729 10.55505,-11.82747 16.42903,-17.26407c1.52954,-1.41565 3.09828,-3.00375 4.82817,-4.21519c0.77403,-0.54205 1.60786,-1.84299 2.46388,-1.44409c1.12514,0.52432 0.88833,2.14214 1.3325,3.21321c-0.44293,5.05381 -1.14751,10.188 -2.10012,15.23715c0.14913,-0.19737 0.29393,-0.39873 0.4291,-0.60593c3.27128,-5.01464 7.13723,-10.49583 11.96841,-14.45201c1.03369,-0.84647 6.05318,-4.68316 7.4496,-4.18302c1.1493,0.41164 1.22101,1.97052 1.48845,3.06179c0.77394,3.15794 -0.54537,7.89798 -0.88728,11.12756c-0.29257,2.74684 -0.88006,5.46672 -1.49975,8.18063c0.59093,-0.72848 1.2173,-1.42388 1.76381,-2.07756c3.57022,-4.27035 7.02713,-8.54132 11.35329,-12.23702c0.73482,-0.62774 4.70846,-4.26253 6.0224,-3.61079c1.05584,0.52371 1.12944,1.93691 1.46039,2.98486c1.06569,3.3745 0.37597,7.63257 0.17867,11.11223c-0.06243,1.06966 -0.23882,2.13481 -0.43263,3.19384l-0.41857,1.23937c0,0 -0.36804,1.08204 -1.56161,0.77079z" fill="#ff0000" stroke-width="0.5"/></g></g></svg>